<svg xmlns="http://www.w3.org/2000/svg" viewBox="894 662 59.038 59.038"><defs><style>.a{fill:#1ac963;}</style></defs><path class="a" d="M57.808,29.519a1.23,1.23,0,1,0,0-2.46H49.2v-7.38h8.61a1.23,1.23,0,1,0,0-2.46H49.2V13.53a3.783,3.783,0,0,0-3.69-3.69h-3.69V1.23a1.23,1.23,0,1,0-2.46,0V9.84h-9.84V1.23a1.23,1.23,0,1,0-2.46,0V9.84h-7.38V1.23a1.23,1.23,0,1,0-2.46,0V9.84H13.53a3.783,3.783,0,0,0-3.69,3.69v3.69H1.23a1.23,1.23,0,1,0,0,2.46H9.84v9.84H1.23a1.23,1.23,0,1,0,0,2.46H9.84v7.38H1.23a1.23,1.23,0,1,0,0,2.46H9.84v3.69a3.783,3.783,0,0,0,3.69,3.69h3.69v8.61a1.23,1.23,0,1,0,2.46,0V49.2h9.84v8.61a1.23,1.23,0,0,0,2.46,0V49.2h7.38v8.61a1.23,1.23,0,0,0,2.46,0V49.2h3.69a3.783,3.783,0,0,0,3.69-3.69v-3.69h8.61a1.23,1.23,0,0,0,0-2.46H49.2v-9.84Zm-40.589,8.61V20.909a3.783,3.783,0,0,1,3.69-3.69H38.129a3.783,3.783,0,0,1,3.69,3.69V38.129a3.783,3.783,0,0,1-3.69,3.69H20.909A3.783,3.783,0,0,1,17.219,38.129Z" transform="translate(894 662)"/></svg>