<svg xmlns="http://www.w3.org/2000/svg" viewBox="647 694 34.439 59.038"><defs><style>.a{fill:#1ac994;}</style></defs><g transform="translate(647 694)"><rect class="a" width="34.439" height="34.439" transform="translate(0 12.3)"/><path class="a" d="M34.439,9.84V6.15A6.09,6.09,0,0,0,28.289,0H6.15A6.09,6.09,0,0,0,0,6.15V9.84ZM17.219,3.69a2.324,2.324,0,0,1,2.46,2.46,2.324,2.324,0,0,1-2.46,2.46,2.324,2.324,0,0,1-2.46-2.46A2.324,2.324,0,0,1,17.219,3.69Z"/><path class="a" d="M0,20v3.69a6.09,6.09,0,0,0,6.15,6.15H28.289a6.09,6.09,0,0,0,6.15-6.15V20Zm23.369,4.92H11.07a1.23,1.23,0,0,1,0-2.46h12.3a1.23,1.23,0,1,1,0,2.46Z" transform="translate(0 29.198)"/></g></svg>