<svg xmlns="http://www.w3.org/2000/svg" viewBox="690 1090 59.038 55.594"><defs><style>.a{fill:#1ac994;}</style></defs><g transform="translate(690 1089.975)"><path class="a" d="M22.245,19.147,11,12.4V25.894L22.245,33.2Z" transform="translate(19.925 22.415)"/><path class="a" d="M17.245,12.4,6,19.147V33.2l11.245-7.309Z" transform="translate(10.868 22.415)"/><path class="a" d="M11,22.917l14.057-9V3.8L11,12.234Z" transform="translate(19.925 6.838)"/><path class="a" d="M19.057,12.234,5,3.8V13.921l14.057,9Z" transform="translate(9.057 6.838)"/><path class="a" d="M14.557,24.044,26.083,17.3l-14.057-9L.5,15.609Z" transform="translate(0.906 14.989)"/><path class="a" d="M14.057,20.234,0,11.8V24.451a1.461,1.461,0,0,0,.562,1.125l13.494,8.715Z" transform="translate(0 21.329)"/><path class="a" d="M16,20.234V34.291l13.494-8.715a2.131,2.131,0,0,0,.562-1.125V11.8Z" transform="translate(28.981 21.329)"/><path class="a" d="M25.457,8.3,11.4,17.3l11.526,6.747,14.057-8.434Z" transform="translate(20.649 14.989)"/><path class="a" d="M19.557,16.542,33.613,8.108,20.4.236a1.255,1.255,0,0,0-1.406,0L5.5,8.108Z" transform="translate(9.962 0)"/></g></svg>